<svg xmlns="http://www.w3.org/2000/svg" viewBox="0 0 100 100" fill="none">
  <!-- Gradient definitions -->
  <defs>
    <linearGradient id="gradient1" x1="0%" y1="0%" x2="100%" y2="100%">
      <stop offset="0%" style="stop-color:#3b82f6;stop-opacity:1" />
      <stop offset="100%" style="stop-color:#1d4ed8;stop-opacity:1" />
    </linearGradient>
  </defs>
  
  <!-- Chat bubble shape -->
  <path d="M20 25 C20 18 25 13 32 13 L68 13 C75 13 80 18 80 25 L80 55 C80 62 75 67 68 67 L45 67 L30 80 L30 67 C23 67 20 62 20 55 Z" 
        fill="url(#gradient1)" 
        stroke="#1e40af" 
        stroke-width="2"/>
  
  <!-- Llama silhouette -->
  <g transform="translate(35, 28)" fill="#ffffff">
    <!-- Llama head -->
    <ellipse cx="15" cy="12" rx="8" ry="10" />
    <!-- Llama ears -->
    <ellipse cx="11" cy="5" rx="2" ry="4" />
    <ellipse cx="19" cy="5" rx="2" ry="4" />
    <!-- Llama nose -->
    <ellipse cx="15" cy="18" rx="4" ry="3" />
    <!-- Eye -->
    <circle cx="13" cy="10" r="1.5" fill="#1e40af" />
    <circle cx="17" cy="10" r="1.5" fill="#1e40af" />
  </g>
  
  <!-- AI sparkles -->
  <circle cx="25" cy="20" r="2" fill="#fbbf24" opacity="0.8"/>
  <circle cx="75" cy="35" r="2" fill="#fbbf24" opacity="0.8"/>
  <circle cx="70" cy="20" r="1.5" fill="#fbbf24" opacity="0.6"/>
</svg>
